STARTFONT 2.1
COMMENT Lorem ipsum dolor set
FONT simple_font
SIZE 8 72 72

CHARS 2
STARTCHAR C1
ENCODING 128
DWIDTH 8 0
BBX 2 8 3 0
BITMAP
FF
FF
FF
FF
FF
FF
FF
FF
ENDCHAR

STARTCHAR C2
ENCODING 129
DWIDTH 8 0
BBX 8 2 0 3
BITMAP
FF
FF
ENDCHAR
ENDFONT
